<svg width="109" height="38" viewBox="0 0 109 38" fill="none" xmlns="http://www.w3.org/2000/svg">
<path d="M43.184 17H41.376V5.832H46.192C47.1947 5.832 47.984 6.136 48.56 6.744C49.136 7.34133 49.424 8.15733 49.424 9.192C49.424 9.992 49.2373 10.6587 48.864 11.192C48.5013 11.7147 47.9627 12.0827 47.248 12.296L49.664 17H47.648L45.408 12.488H43.184V17ZM46.064 10.968C46.5227 10.968 46.88 10.8507 47.136 10.616C47.392 10.3707 47.52 10.024 47.52 9.576V8.808C47.52 8.36 47.392 8.01867 47.136 7.784C46.88 7.53867 46.5227 7.416 46.064 7.416H43.184V10.968H46.064ZM51.8604 17V5.832H59.0124V7.432H53.6684V10.536H58.5164V12.136H53.6684V15.4H59.0124V17H51.8604ZM64.6888 17.192C63.7501 17.192 62.9501 17.0213 62.2888 16.68C61.6381 16.3387 61.0781 15.88 60.6088 15.304L61.8568 14.136C62.2514 14.616 62.6834 14.9787 63.1528 15.224C63.6328 15.4693 64.1768 15.592 64.7848 15.592C65.4994 15.592 66.0381 15.432 66.4008 15.112C66.7634 14.792 66.9448 14.36 66.9448 13.816C66.9448 13.3787 66.8168 13.032 66.5608 12.776C66.3048 12.52 65.8514 12.328 65.2008 12.2L64.2088 12.024C63.1208 11.8213 62.3048 11.464 61.7608 10.952C61.2168 10.44 60.9448 9.736 60.9448 8.84C60.9448 8.34933 61.0354 7.90667 61.2168 7.512C61.4088 7.10667 61.6701 6.77067 62.0008 6.504C62.3421 6.22667 62.7528 6.01333 63.2328 5.864C63.7128 5.71467 64.2514 5.64 64.8488 5.64C65.6914 5.64 66.4221 5.78933 67.0408 6.088C67.6594 6.376 68.1874 6.79733 68.6248 7.352L67.3608 8.472C67.0728 8.09867 66.7208 7.8 66.3048 7.576C65.8888 7.352 65.3714 7.24 64.7528 7.24C64.1128 7.24 63.6168 7.368 63.2648 7.624C62.9128 7.88 62.7368 8.25333 62.7368 8.744C62.7368 9.21333 62.8808 9.56533 63.1688 9.8C63.4568 10.024 63.9048 10.1947 64.5128 10.312L65.5048 10.52C66.6248 10.7333 67.4408 11.096 67.9528 11.608C68.4754 12.12 68.7368 12.824 68.7368 13.72C68.7368 14.2427 68.6461 14.7173 68.4648 15.144C68.2834 15.5707 68.0168 15.9387 67.6648 16.248C67.3234 16.5467 66.9021 16.7813 66.4008 16.952C65.8994 17.112 65.3288 17.192 64.6888 17.192ZM70.9073 17V5.832H78.0593V7.432H72.7153V10.536H77.5633V12.136H72.7153V15.4H78.0593V17H70.9073ZM82.1996 17H80.3916V5.832H85.2076C86.2103 5.832 86.9996 6.136 87.5756 6.744C88.1516 7.34133 88.4396 8.15733 88.4396 9.192C88.4396 9.992 88.253 10.6587 87.8796 11.192C87.517 11.7147 86.9783 12.0827 86.2636 12.296L88.6796 17H86.6636L84.4236 12.488H82.1996V17ZM85.0796 10.968C85.5383 10.968 85.8956 10.8507 86.1516 10.616C86.4076 10.3707 86.5356 10.024 86.5356 9.576V8.808C86.5356 8.36 86.4076 8.01867 86.1516 7.784C85.8956 7.53867 85.5383 7.416 85.0796 7.416H82.1996V10.968H85.0796ZM93.0145 17L89.3505 5.832H91.2225L92.9985 11.352L94.0705 15.24H94.1345L95.2225 11.352L96.9985 5.832H98.8225L95.1105 17H93.0145ZM100.485 17V5.832H107.637V7.432H102.293V10.536H107.141V12.136H102.293V15.4H107.637V17H100.485Z" fill="#333333"/>
<path d="M41.376 34V22.832H46.176C47.2107 22.832 48.0107 23.136 48.576 23.744C49.1413 24.352 49.424 25.168 49.424 26.192C49.424 27.216 49.1413 28.032 48.576 28.64C48.0107 29.248 47.2107 29.552 46.176 29.552H43.184V34H41.376ZM43.184 27.968H46.064C46.5227 27.968 46.88 27.8507 47.136 27.616C47.392 27.3707 47.52 27.024 47.52 26.576V25.808C47.52 25.36 47.392 25.0187 47.136 24.784C46.88 24.5387 46.5227 24.416 46.064 24.416H43.184V27.968ZM53.2153 34H51.4073V22.832H56.2233C57.2259 22.832 58.0153 23.136 58.5913 23.744C59.1673 24.3413 59.4553 25.1573 59.4553 26.192C59.4553 26.992 59.2686 27.6587 58.8953 28.192C58.5326 28.7147 57.9939 29.0827 57.2793 29.296L59.6953 34H57.6793L55.4393 29.488H53.2153V34ZM56.0953 27.968C56.5539 27.968 56.9113 27.8507 57.1673 27.616C57.4233 27.3707 57.5513 27.024 57.5513 26.576V25.808C57.5513 25.36 57.4233 25.0187 57.1673 24.784C56.9113 24.5387 56.5539 24.416 56.0953 24.416H53.2153V27.968H56.0953ZM66.0554 34.192C65.33 34.192 64.6687 34.0693 64.0714 33.824C63.4847 33.568 62.978 33.2 62.5514 32.72C62.1354 32.2293 61.81 31.6267 61.5754 30.912C61.3514 30.1867 61.2394 29.3547 61.2394 28.416C61.2394 27.4773 61.3514 26.6507 61.5754 25.936C61.81 25.2107 62.1354 24.608 62.5514 24.128C62.978 23.6373 63.4847 23.2693 64.0714 23.024C64.6687 22.768 65.33 22.64 66.0554 22.64C66.7807 22.64 67.4367 22.768 68.0234 23.024C68.6207 23.2693 69.1274 23.6373 69.5434 24.128C69.97 24.608 70.2954 25.2107 70.5194 25.936C70.754 26.6507 70.8714 27.4773 70.8714 28.416C70.8714 29.3547 70.754 30.1867 70.5194 30.912C70.2954 31.6267 69.97 32.2293 69.5434 32.72C69.1274 33.2 68.6207 33.568 68.0234 33.824C67.4367 34.0693 66.7807 34.192 66.0554 34.192ZM66.0554 32.576C66.482 32.576 66.8714 32.5013 67.2234 32.352C67.586 32.2027 67.89 31.9893 68.1354 31.712C68.3914 31.424 68.5887 31.0773 68.7274 30.672C68.866 30.2667 68.9354 29.808 68.9354 29.296V27.536C68.9354 27.024 68.866 26.5653 68.7274 26.16C68.5887 25.7547 68.3914 25.4133 68.1354 25.136C67.89 24.848 67.586 24.6293 67.2234 24.48C66.8714 24.3307 66.482 24.256 66.0554 24.256C65.618 24.256 65.2234 24.3307 64.8714 24.48C64.5194 24.6293 64.2154 24.848 63.9594 25.136C63.714 25.4133 63.522 25.7547 63.3834 26.16C63.2447 26.5653 63.1754 27.024 63.1754 27.536V29.296C63.1754 29.808 63.2447 30.2667 63.3834 30.672C63.522 31.0773 63.714 31.424 63.9594 31.712C64.2154 31.9893 64.5194 32.2027 64.8714 32.352C65.2234 32.5013 65.618 32.576 66.0554 32.576Z" fill="#333333"/>
<path d="M10.3333 2V8.66667M23.6667 2V8.66667M2 15.3333H32M12 25.3333L15.3333 28.6667L22 22M5.33333 5.33333H28.6667C30.5076 5.33333 32 6.82572 32 8.66667V32C32 33.8409 30.5076 35.3333 28.6667 35.3333H5.33333C3.49238 35.3333 2 33.8409 2 32V8.66667C2 6.82572 3.49238 5.33333 5.33333 5.33333Z" stroke="#6366F1" stroke-width="3" stroke-linecap="round" stroke-linejoin="round"/>
</svg>
